<svg xmlns="http://www.w3.org/2000/svg" width="509.35449" height="697.37041" viewBox="0 0 509.35449 697.37041" xmlns:xlink="http://www.w3.org/1999/xlink"><path d="m482.51827,416.15187h-250.5792c-14.79747,0-26.83622-12.03875-26.83622-26.83622V26.83622c0-14.79747,12.03875-26.83622,26.83622-26.83622h250.5792c14.79747,0,26.83622,12.03875,26.83622,26.83622v362.47944c0,14.79747-12.03875,26.83622-26.83622,26.83622Z" fill="#2f2e41" stroke-width="0"/><path d="m482.64576,398.96458h-250.10281c-4.04023,0-7.32731-3.2869-7.32731-7.32731V24.5146c0-4.04041,3.28708-7.32731,7.32731-7.32731h250.10281c4.04041,0,7.32731,3.2869,7.32731,7.32731v367.12267c0,4.04041-3.2869,7.32731-7.32731,7.32731Z" fill="#fff" stroke-width="0"/><path d="m337.71029,228.88476s-13,65-35,74" fill="none" stroke="#2f2e41" stroke-miterlimit="10" stroke-width="2"/><path d="m309.71029,305.88476s9-13,15-4-6,14.48365-15,10.74183c0,0-5,3.00701,0,4.13259s14.39278,8.25282,7.19639,13.6892-17.19639,6.3178-14.19639-11.62291c0,0-8,18.05929-18,5.05929,0,0-2-6.83404,0-8.41702s3-7.99989,18-1.29143c0,0,2-2.39076,0-2.84116s-22-.45039-11-10.45039,11-2.17388,11-2.17388c0,0,3,8.17388,7,7.17388Z" fill="#ff6363" stroke-width="0"/><path d="m306.11541,148.35492s-4.44323,1.49534-2.94789,5.93857,3.41096,25.36253,29.54519,27.42605l9.52561-3.20578-2.13794-6.35263s-1.35494-18.71159-20.65529-28.29223c0,0-11.86644-2.18952-10.74493,1.1429,0,0-5.55404,1.86917-2.58475,3.34312Z" fill="#6c63ff" stroke-width="0"/><path d="m306.11541,148.35492s-4.44323,1.49534-2.94789,5.93857,3.41096,25.36253,29.54519,27.42605l9.52561-3.20578-2.13794-6.35263s-1.35494-18.71159-20.65529-28.29223c0,0-11.86644-2.18952-10.74493,1.1429,0,0-5.55404,1.86917-2.58475,3.34312Z" fill="#2f2e41" opacity=".3" stroke-width="0"/><path d="m291.04697,183.84182s-2.71391,3.8227,1.10879,6.53661,17.67595,18.50549,40.02545,4.80309l5.81821-8.19528-5.46543-3.88017s-12.10132-14.33589-33.34529-10.73234c0,0-10.88467,5.20868-8.01765,7.24411,0,0-3.39239,4.77837-.12408,4.22398Z" fill="#6c63ff" stroke-width="0"/><path d="m291.04697,183.84182s-2.71391,3.8227,1.10879,6.53661,17.67595,18.50549,40.02545,4.80309l5.81821-8.19528-5.46543-3.88017s-12.10132-14.33589-33.34529-10.73234c0,0-10.88467,5.20868-8.01765,7.24411,0,0-3.39239,4.77837-.12408,4.22398Z" fill="#2f2e41" opacity=".2" stroke-width="0"/><path d="m316.00002,232.88213s1.16447,4.54118,5.70565,3.37671,25.54471-1.53618,29.52495-27.44784l-2.49644-9.73561-6.49268,1.66488s-18.76057-.02505-29.73489,18.51831c0,0-3.05642,11.67324.34946,10.79989,0,0,1.45559,5.67648,3.14394,2.82365Z" fill="#6c63ff" stroke-width="0"/><path d="m316.00002,232.88213s1.16447,4.54118,5.70565,3.37671,25.54471-1.53618,29.52495-27.44784l-2.49644-9.73561-6.49268,1.66488s-18.76057-.02505-29.73489,18.51831c0,0-3.05642,11.67324.34946,10.79989,0,0,1.45559,5.67648,3.14394,2.82365Z" fill="#2f2e41" opacity=".2" stroke-width="0"/><path d="m370.84446,257.92965s4.59144.9471,5.53854-3.64434,9.83275-23.62645-11.70193-38.57682l-9.84335-2.03043-1.3541,6.56453s-8.25759,16.84553,3.58653,34.84578c0,0,9.14687,7.87027,9.85719,4.42669,0,0,5.7393,1.18387,3.91713-1.5854Z" fill="#6c63ff" stroke-width="0"/><path d="m370.84446,257.92965s4.59144.9471,5.53854-3.64434,9.83275-23.62645-11.70193-38.57682l-9.84335-2.03043-1.3541,6.56453s-8.25759,16.84553,3.58653,34.84578c0,0,9.14687,7.87027,9.85719,4.42669,0,0,5.7393,1.18387,3.91713-1.5854Z" fill="#2f2e41" opacity=".2" stroke-width="0"/><path d="m421.052,215.92302s3.53471-3.10837.42634-6.64309-12.9972-22.1645-37.99997-13.93774l-7.57789,6.66388,4.44414,5.05369s8.51321,16.80278,30.10324,18.18838c0,0,11.83857-2.57545,9.50729-5.22649,0,0,4.41839-3.88547,1.09685-4.09864Z" fill="#6c63ff" stroke-width="0"/><path d="m421.052,215.92302s3.53471-3.10837.42634-6.64309-12.9972-22.1645-37.99997-13.93774l-7.57789,6.66388,4.44414,5.05369s8.51321,16.80278,30.10324,18.18838c0,0,11.83857-2.57545,9.50729-5.22649,0,0,4.41839-3.88547,1.09685-4.09864Z" fill="#2f2e41" opacity=".2" stroke-width="0"/><path d="m411.18184,157.40062s-.32074-4.29965-4.62039-3.97891-23.3761-2.73552-31.16541,20.08172l.68762,9.21779,6.14735-.45857s16.9816,3.05317,29.91306-11.96309c0,0,4.6529-10.07513,1.42816-9.83458,0,0-.40092-5.37456-2.39038-3.06437Z" fill="#6c63ff" stroke-width="0"/><path d="m411.18184,157.40062s-.32074-4.29965-4.62039-3.97891-23.3761-2.73552-31.16541,20.08172l.68762,9.21779,6.14735-.45857s16.9816,3.05317,29.91306-11.96309c0,0,4.6529-10.07513,1.42816-9.83458,0,0-.40092-5.37456-2.39038-3.06437Z" fill="#2f2e41" opacity=".2" stroke-width="0"/><path d="m364.18924,129.44509s-3.46858-2.56102-6.0296.90756-17.3192,15.93646-5.10239,36.72225l7.43611,5.49044,3.66157-4.95914s13.38961-10.88187,10.44004-30.47806c0,0-4.60303-10.09801-6.52379-7.49658,0,0-4.33572-3.20127-3.88194-.18648Z" fill="#6c63ff" stroke-width="0"/><path d="m364.18924,129.44509s-3.46858-2.56102-6.0296.90756-17.3192,15.93646-5.10239,36.72225l7.43611,5.49044,3.66157-4.95914s13.38961-10.88187,10.44004-30.47806c0,0-4.60303-10.09801-6.52379-7.49658,0,0-4.33572-3.20127-3.88194-.18648Z" fill="#2f2e41" opacity=".2" stroke-width="0"/><path d="m385.0162,136.06139s-2.72368-3.34236-6.06605-.61868-20.73507,11.13474-14.06452,34.30376l5.83917,7.16552,4.77869-3.89414s15.67305-7.21472,17.68376-26.92937c0,0-1.95033-10.92492-4.45711-8.88216,0,0-3.4046-4.17795-3.71394-1.14493Z" fill="#6c63ff" stroke-width="0"/><path d="m423.96634,184.89992s1.81334-3.91173-2.09839-5.72507-19.08613-13.77117-36.99946,2.36613l-3.88753,8.38616,5.59273,2.59259s13.34614,10.93515,31.95262,4.11538c0,0,8.96968-6.53472,6.03588-7.89472,0,0,2.26668-4.88966-.59586-3.84047Z" fill="#6c63ff" stroke-width="0"/><path d="m410.27791,239.55197s4.1235-2.23049,1.89301-6.35399-7.68221-24.41057-33.78591-21.99133l-8.84016,4.78183,3.189,5.8955s4.52311,18.20717,25.17356,24.35945c0,0,12.06598.13577,10.39312-2.95685,0,0,5.15437-2.78811,1.97738-3.73462Z" fill="#6c63ff" stroke-width="0"/><path d="m337.79199,247.09276s3.21944,3.40787,6.6273.18843c3.40787-3.21944,21.59973-13.72385,12.52332-38.31805l-6.90198-7.30595-4.87234,4.60293s-16.42221,9.07031-17.03461,30.60904c0,0,2.9839,11.69199,5.5398,9.27742,0,0,4.0243,4.25983,4.11851.94618Z" fill="#6c63ff" stroke-width="0"/><path d="m297.37572,208.99212s-.84979,4.61044,3.76065,5.46023,23.82911,9.33091,38.32073-12.51512l1.82182-9.88409-6.5917-1.21497s-17.01639-7.8995-34.76214,4.32262c0,0-7.67508,9.31126-4.21725,9.9486,0,0-1.06224,5.76305,1.66788,3.88273Z" fill="#6c63ff" stroke-width="0"/><path d="m327.5771,136.21786s-4.31159,0-4.31159,4.31159-4.46689,23.10784,17.70768,32.57294h9.24341v-6.16443s4.30797-16.70743-9.70471-30.72011c0,0-9.70109-5.38949-9.70109-2.1558,0,0-5.38949,0-3.2337,2.1558Z" fill="#6c63ff" stroke-width="0"/><circle cx="358.02773" cy="193.61595" r="26.67799" fill="#2f2e41" stroke-width="0"/><path d="m302.78224,191.31236l-23.49568,21.23461-12.39818-13.71835,23.49568-21.23461c.16487-4.70329,2.43772-9.68016,6.62345-13.46308,7.32393-6.61912,17.70173-7.0714,23.17961-1.01023,5.47788,6.06117,3.98141,16.34046-3.34252,22.95959-4.18573,3.78292-9.36652,5.5422-14.06236,5.23207Z" fill="#e8989b" stroke-width="0"/><polyline points="201.41408 244.8638 282.30229 175.28318 303.30742 199.56348 210.90886 290.05062" fill="#c6c6c7" stroke-width="0"/><polygon points="179.49284 285.48903 167.76243 331.84436 248.76243 330.84436 239.49284 288.48903 179.49284 285.48903" fill="#e8989b" stroke-width="0"/><polygon points="164.50948 443.86221 146.92328 520.80181 114.55573 674.84436 129.55573 677.84436 232.65599 448.25875 164.50948 443.86221" fill="#e8989b" stroke-width="0"/><polygon points="198.36821 461.38835 230.85166 533.31751 278.55573 677.84436 298.55573 672.84436 255.32084 423.70979 198.36821 461.38835" fill="#e8989b" stroke-width="0"/><path d="m172.31121,312.75883s-36.16377,63.68079-29.56894,134.02558c0,0,53.31493,40.37067,138.96343,3l-35.2566-140.68957-74.13788,3.66399Z" fill="#090814" stroke-width="0"/><path d="m112.05118,693.21107c-1.72186-1.41136-2.65133-2.98734-2.7624-4.68435-.12712-1.94104.83209-4.02365,2.85054-6.18994.04845-.62337.67491-8.34657,2.0709-9.72956-.11702-.41341-.82809-3.15418.33753-4.93385.54911-.83832,1.43419-1.32695,2.63074-1.45234l.05213-.00539.02583.04613c.03374.06032,3.43065,6.03475,8.54043,6.55929,2.92952.30071,5.86257-1.22542,8.71773-4.53724.10262-.24467.90935-4.27846,1.43005-6.94853l.02082-.10676,27.8417,14.8178,16.27453,4.55975c2.04546.57312,3.47402,2.47422,3.47402,4.62316,0,1.83238-1.05392,3.52939-2.68499,4.32324l-7.88858,3.83953c-3.29621,1.60435-6.97164,2.45234-10.62898,2.45234h-42.79037c-2.77234,0-5.44003-.93517-7.51163-2.63329Z" fill="#090814" stroke-width="0"/><path d="m271.05118,693.21107c-1.72186-1.41136-2.65133-2.98734-2.7624-4.68435-.12712-1.94104.83209-4.02365,2.85054-6.18994.04845-.62337.67491-8.34657,2.0709-9.72956-.11702-.41341-.82809-3.15418.33753-4.93385.54911-.83832,1.43419-1.32695,2.63074-1.45234l.05213-.00539.02583.04613c.03374.06032,3.43065,6.03475,8.54043,6.55929,2.92952.30071,5.86257-1.22542,8.71773-4.53724.10262-.24467.90935-4.27846,1.43005-6.94853l.02082-.10676,27.8417,14.8178,16.27453,4.55975c2.04546.57312,3.47402,2.47422,3.47402,4.62316,0,1.83238-1.05392,3.52939-2.68499,4.32324l-7.88858,3.83953c-3.29621,1.60435-6.97164,2.45234-10.62898,2.45234h-42.79037c-2.77234,0-5.44003-.93517-7.51163-2.63329Z" fill="#090814" stroke-width="0"/><path d="m191.13169,141.6388c0-18.04382,14.62744-32.67126,32.67126-32.67126s32.67139,14.62744,32.67139,32.67126c0,14.63367-9.62158,27.01855-22.88306,31.17786l-6.31592,41.74072-32.19775-26.83142s6.95569-8.85986,10.68591-18.84985c-8.81641-5.85083-14.63184-15.86304-14.63184-27.2373Z" fill="#e8989b" stroke-width="0"/><path d="m192.0119,173.8907l38.48094,24.59833,17.76169,31.36719c5.14287,9.08231,6.87981,19.70043,4.89898,29.94806l-8.16067,42.2185h-85.0862s13.44414-88.08106,13.44414-88.08106c1.71593-11.24213,5.99794-21.93804,12.51405-31.25845l6.14707-8.79255Z" fill="#c6c6c7" stroke-width="0"/><path d="m180.6417,184.56536s1.52565,11.57501,15.66063,11.95301q28.67289.76677,28.67289.76677s-24.23848-58.98738-14.27196-52.34202c9.96652,6.64535,36.54389-21.21402,36.54389-21.21402l7.84208,14.70774s18.7353-6.78444-2.02828-23.39782c0,0-24.77394-19.15327-51.07447-7.65169-26.30053,11.50158-21.34479,77.17803-21.34479,77.17803Z" fill="#090814" stroke-width="0"/><path d="m198.59558,394.16681l-.68689-31.66203,18.4864-.40105.68689,31.66203c3.44909,3.20185,5.72592,8.1769,5.84829,13.81745.21411,9.86949-6.2336,18.01383-14.40144,18.19103-8.16784.1772-14.96269-7.67985-15.17681-17.54935-.12237-5.64055,1.93671-10.70966,5.24355-14.05808Z" fill="#e8989b" stroke-width="0"/><polyline points="224.11717 235.69692 224.11717 389.16562 192.0119 389.16562 182.52345 236.9924" fill="#c6c6c7" stroke-width="0"/><path d="m413.59998,696.18041c0,.65997-.53003,1.19-1.19,1.19H1.19c-.66,0-1.19-.53003-1.19-1.19s.53-1.19,1.19-1.19h411.21997c.65997,0,1.19.53003,1.19,1.19Z" fill="#2e2e43" stroke-width="0"/></svg>